# xmcd
#
# Track frame offsets:
#	150
#	20319
#	40069
#	60890
#	80216
#	103143
#	125470
#	143525
#	163744
#
# Disc length: 2441 seconds
#
# Revision: 3
# Processed by: cddbd v1.5.2PL0 Copyright (c) Steve Scherf et al.
# Submitted via: EasyCDDAExtractor 15.3.0.1
#
DISCID=6d098709
DTITLE=Rey Ruiz - El Mensaje
DYEAR=2009
DGENRE=Latin
TTITLE0=Si Tu Te Vas
TTITLE1=Por Eso Estoy Contigo
TTITLE2=Yo No Se Lo Que Paso
TTITLE3=La Vi Llegar
TTITLE4=Sentimental
TTITLE5=Si Tu Te Vas (Balada)
TTITLE6=Mañana Te Olvido
TTITLE7=El Mensaje
TTITLE8=Que Tanto Te Extraño
EXTD=
EXTT0=
EXTT1=
EXTT2=
EXTT3=
EXTT4=
EXTT5=
EXTT6=
EXTT7=
EXTT8=
PLAYORDER=
